<svg xmlns="http://www.w3.org/2000/svg" viewBox="0 0 760 420">
  <defs>
    <linearGradient id="turboFill" x1="0" x2="0" y1="58" y2="190" gradientUnits="userSpaceOnUse">
      <stop offset="0" stop-color="#fff65b" />
      <stop offset="0.48" stop-color="#ffd71f" />
      <stop offset="0.5" stop-color="#ff2e24" />
      <stop offset="1" stop-color="#c80f22" />
    </linearGradient>
    <linearGradient id="gumFill" x1="0" x2="0" y1="198" y2="356" gradientUnits="userSpaceOnUse">
      <stop offset="0" stop-color="#ff8ebb" />
      <stop offset="0.48" stop-color="#f45c97" />
      <stop offset="1" stop-color="#9b143f" />
    </linearGradient>
    <linearGradient id="sticker" x1="84" x2="692" y1="64" y2="360" gradientUnits="userSpaceOnUse">
      <stop offset="0" stop-color="#ffffff" />
      <stop offset="1" stop-color="#f5f1db" />
    </linearGradient>
    <pattern id="checks" width="32" height="32" patternUnits="userSpaceOnUse">
      <rect width="32" height="32" fill="#fffdf1" />
      <rect width="16" height="16" fill="#050505" />
      <rect x="16" y="16" width="16" height="16" fill="#050505" />
    </pattern>
    <filter id="shadow" x="-18%" y="-18%" width="136%" height="140%">
      <feDropShadow dx="0" dy="10" stdDeviation="7" flood-color="#000000" flood-opacity="0.32" />
    </filter>
  </defs>

  <g filter="url(#shadow)">
    <path
      d="M81 175c28-72 91-77 153-54 26-39 75-36 121-16 43-22 101-14 132 21 70-31 149-17 181 50 33 70-4 144-80 144-39 46-120 46-176 19-60 43-161 36-207-16-70 21-136-5-149-73-21-12-30-42-15-75 9-19 23-31 40-39z"
      fill="url(#sticker)"
      stroke="#f8f5e8"
      stroke-width="20"
      stroke-linejoin="round"
    />

    <g transform="translate(107 144) rotate(-15)">
      <path d="M0 6c43-31 79 31 128 2v113c-49 30-85-33-128-2z" fill="url(#checks)" stroke="#090909" stroke-width="8" stroke-linejoin="round" />
      <path d="M0 5l-18 145" fill="none" stroke="#111111" stroke-width="8" stroke-linecap="round" />
      <path d="M-22 29c-18 7-31 18-39 36M-25 58c-15 6-27 16-36 29M-30 91c-12 5-21 12-29 23" fill="none" stroke="#111111" stroke-width="6" stroke-linecap="round" opacity="0.9" />
    </g>

    <g transform="translate(653 144) scale(-1 1) rotate(-15)">
      <path d="M0 6c43-31 79 31 128 2v113c-49 30-85-33-128-2z" fill="url(#checks)" stroke="#090909" stroke-width="8" stroke-linejoin="round" />
      <path d="M0 5l-18 145" fill="none" stroke="#111111" stroke-width="8" stroke-linecap="round" />
      <path d="M-22 29c-18 7-31 18-39 36M-25 58c-15 6-27 16-36 29M-30 91c-12 5-21 12-29 23" fill="none" stroke="#111111" stroke-width="6" stroke-linecap="round" opacity="0.9" />
    </g>

    <g font-family="Impact, Arial Black, Haettenschweiler, sans-serif" font-weight="900" text-anchor="middle" paint-order="stroke fill">
      <text x="380" y="170" font-size="138" letter-spacing="13" fill="none" stroke="#fffdf2" stroke-width="36" stroke-linejoin="round">TURBO</text>
      <text x="380" y="170" font-size="138" letter-spacing="13" fill="url(#turboFill)" stroke="#070707" stroke-width="16" stroke-linejoin="round">TURBO</text>
      <text x="380" y="170" font-size="138" letter-spacing="13" fill="none" stroke="#ffffff" stroke-width="3" stroke-linejoin="round" opacity="0.42">TURBO</text>

      <text x="380" y="326" font-size="178" letter-spacing="8" fill="none" stroke="#fffdf2" stroke-width="38" stroke-linejoin="round">GUM</text>
      <text x="380" y="326" font-size="178" letter-spacing="8" fill="url(#gumFill)" stroke="#070707" stroke-width="17" stroke-linejoin="round">GUM</text>
      <text x="380" y="326" font-size="178" letter-spacing="8" fill="none" stroke="#ffd2e4" stroke-width="4" stroke-linejoin="round" opacity="0.72">GUM</text>
    </g>
  </g>
</svg>
